<svg display="none" xmlns="http://www.w3.org/2000/svg">
    <symbol id="logo" viewBox="0 0 24 24">
        <path d="M2 8.77225C2 8.04834 2.39118 7.38094 3.02279 7.02724L11.0228 2.54724C11.6299 2.20725 12.3701 2.20725 12.9772 2.54724L20.9772 7.02724C21.6088 7.38094 22 8.04834 22 8.77225V20C22 21.1046 21.1046 22 20 22H4C2.89543 22 2 21.1046 2 20V8.77225Z"/>
        <circle cx="12" cy="13" r="5.5" fill="white" stroke="white"/>
        <circle cx="12" cy="13" r="2.5"/>
    </symbol>
    <symbol id="dots" viewBox="0 0 72 56">
        <circle cx="4" cy="4" r="4" fill="#F2F2F2"/>
        <circle cx="36" cy="4" r="4" fill="#F2F2F2"/>
        <circle cx="20" cy="4" r="4" fill="#F2F2F2"/>
        <circle cx="52" cy="4" r="4" fill="#F2F2F2"/>
        <circle cx="68" cy="4" r="4" fill="#F2F2F2"/>
        <circle cx="4" cy="20" r="4" fill="#F2F2F2"/>
        <circle cx="36" cy="20" r="4" fill="#F2F2F2"/>
        <circle cx="20" cy="20" r="4" fill="#F2F2F2"/>
        <circle cx="52" cy="20" r="4" fill="#F2F2F2"/>
        <circle cx="68" cy="20" r="4" fill="#F2F2F2"/>
        <circle cx="4" cy="36" r="4" fill="#F2F2F2"/>
        <circle cx="36" cy="36" r="4" fill="#F2F2F2"/>
        <circle cx="20" cy="36" r="4" fill="#F2F2F2"/>
        <circle cx="52" cy="36" r="4" fill="#F2F2F2"/>
        <circle cx="68" cy="36" r="4" fill="#F2F2F2"/>
        <circle cx="4" cy="52" r="4" fill="#F2F2F2"/>
        <circle cx="36" cy="52" r="4" fill="#F2F2F2"/>
        <circle cx="20" cy="52" r="4" fill="#F2F2F2"/>
        <circle cx="52" cy="52" r="4" fill="#F2F2F2"/>
        <circle cx="68" cy="52" r="4" fill="#F2F2F2"/>
    </symbol>
    
</svg>