<svg display="none" xmlns="http://www.w3.org/2000/svg">
    <symbol id="logo" viewBox="0 0 24 24">
        <path d="M2 8.77225C2 8.04834 2.39118 7.38094 3.02279 7.02724L11.0228 2.54724C11.6299 2.20725 12.3701 2.20725 12.9772 2.54724L20.9772 7.02724C21.6088 7.38094 22 8.04834 22 8.77225V20C22 21.1046 21.1046 22 20 22H4C2.89543 22 2 21.1046 2 20V8.77225Z"/>
        <circle cx="12" cy="13" r="5.5" fill="white" stroke="white"/>
        <circle cx="12" cy="13" r="2.5"/>
    </symbol>
    <symbol id="dots" viewBox="0 0 72 56">
        <circle cx="4" cy="4" r="4" fill="#4c3f54"/>
        <circle cx="36" cy="4" r="4" fill="#4c3f54"/>
        <circle cx="20" cy="4" r="4" fill="#4c3f54"/>
        <circle cx="52" cy="4" r="4" fill="#4c3f54"/>
        <circle cx="68" cy="4" r="4" fill="#4c3f54"/>
        <circle cx="4" cy="20" r="4" fill="#4c3f54"/>
        <circle cx="36" cy="20" r="4" fill="#4c3f54"/>
        <circle cx="20" cy="20" r="4" fill="#4c3f54"/>
        <circle cx="52" cy="20" r="4" fill="#4c3f54"/>
        <circle cx="68" cy="20" r="4" fill="#4c3f54"/>
        <circle cx="4" cy="36" r="4" fill="#4c3f54"/>
        <circle cx="36" cy="36" r="4" fill="#4c3f54"/>
        <circle cx="20" cy="36" r="4" fill="#4c3f54"/>
        <circle cx="52" cy="36" r="4" fill="#4c3f54"/>
        <circle cx="68" cy="36" r="4" fill="#4c3f54"/>
        <circle cx="4" cy="52" r="4" fill="#4c3f54"/>
        <circle cx="36" cy="52" r="4" fill="#4c3f54"/>
        <circle cx="20" cy="52" r="4" fill="#4c3f54"/>
        <circle cx="52" cy="52" r="4" fill="#4c3f54"/>
        <circle cx="68" cy="52" r="4" fill="#4c3f54"/>
    </symbol>
    <symbol id="dollar" viewBox="0 0 48 48" fill="none">
      <circle cx="24" cy="24" r="24" fill="#1e434c"/>
      <path d="M25.79 20.69C25.79 20.69 24.77 19.79 22.98 20.42C21.33 20.99 21.41 23.25 23.91 23.85" stroke="#ffffff" stroke-width="1.2" stroke-miterlimit="10" stroke-linecap="round" stroke-linejoin="round"/>
      <path d="M21.87 26.9699C21.87 26.9699 22.89 27.8699 24.68 27.2399C26.34 26.6599 26.26 24.3999 23.75 23.7999" stroke="#ffffff" stroke-width="1.2" stroke-miterlimit="10" stroke-linecap="round" stroke-linejoin="round"/>
      <path d="M24.01 20.2V18.73" stroke="#ffffff" stroke-width="1.2" stroke-miterlimit="10" stroke-linecap="round" stroke-linejoin="round"/>
      <path d="M24.01 28.93V27.46" stroke="#ffffff" stroke-width="1.2" stroke-miterlimit="10" stroke-linecap="round" stroke-linejoin="round"/>
      <path d="M23.83 33.06C28.9276 33.06 33.06 28.9276 33.06 23.83C33.06 18.7324 28.9276 14.6 23.83 14.6C18.7324 14.6 14.6 18.7324 14.6 23.83C14.6 28.9276 18.7324 33.06 23.83 33.06Z" stroke="#ffffff" stroke-width="1.2" stroke-miterlimit="10" stroke-linecap="round" stroke-linejoin="round"/>
    </symbol>
    <symbol id="secur" viewBox="0 0 48 48" fill="none">
      <circle cx="24" cy="24" r="24" fill="#1e434c"/>
      <path d="M26.37 30.57L23.8 31.99L21.23 30.56C18.37 28.98 16.6 25.97 16.6 22.7V15.6H30.99V22.7C30.99 25.97 29.22 28.98 26.37 30.57Z" stroke="#ffffff" stroke-width="1.2" stroke-miterlimit="10" stroke-linecap="round" stroke-linejoin="round"/>
      <path d="M21.13 22.61L23.16 24.65L26.47 21.35" stroke="#ffffff" stroke-width="1.2" stroke-miterlimit="10" stroke-linecap="round" stroke-linejoin="round"/>
    </symbol>
    <symbol id="clock" viewBox="0 0 48 48" fill="none">
        <circle cx="24" cy="24" r="24" fill="#1e434c"/>
        <circle cx="24" cy="24" r="8.4" stroke="#ffffff" stroke-width="1.2"/>
        <path d="M24 20V24.639L27 26" stroke="#ffffff" stroke-width="1.2" stroke-miterlimit="10" stroke-linecap="round" stroke-linejoin="round"/>
    </symbol>
    <symbol id="wifi" viewBox="0 0 13 10" fill="none">
        <path d="M6.86655 9.7866C7.24947 9.7866 7.55988 9.47618 7.55988 9.09327C7.55988 8.71035 7.24947 8.39993 6.86655 8.39993C6.48363 8.39993 6.17322 8.71035 6.17322 9.09327C6.17322 9.47618 6.48363 9.7866 6.86655 9.7866Z" fill="#46211a"/>
        <path d="M9.00656 7.27992C8.49323 6.66659 7.73323 6.27325 6.86656 6.27325C5.9999 6.27325 5.2399 6.66659 4.72656 7.27992" stroke="#46211a" stroke-width="1.2" stroke-miterlimit="10" stroke-linecap="round" stroke-linejoin="round"/>
        <path d="M10.6401 5.13325C9.73344 4.06658 8.38011 3.37991 6.86678 3.37991C5.35344 3.37991 4.00011 4.05991 3.09344 5.13325" stroke="#46211a" stroke-width="1.2" stroke-miterlimit="10" stroke-linecap="round" stroke-linejoin="round"/>
        <path d="M12.3334 3.27328C11.0201 1.71994 9.06008 0.733276 6.86675 0.733276C4.67342 0.733276 2.71342 1.71994 1.40009 3.27328" stroke="#46211a" stroke-width="1.2" stroke-miterlimit="10" stroke-linecap="round" stroke-linejoin="round"/>
    </symbol>
    <symbol id="family" viewBox="0 0 15 13" fill="none">
        <path d="M11.4456 5.35924C12.1362 4.46895 11.9742 3.18744 11.084 2.49691C10.1937 1.80638 8.91216 1.96832 8.22163 2.8586C7.5311 3.74889 7.69303 5.0304 8.58332 5.72093C9.47361 6.41146 10.7551 6.24952 11.4456 5.35924Z" stroke="#46211a" stroke-width="1.2" stroke-miterlimit="10" stroke-linecap="round" stroke-linejoin="round"/>
        <path d="M5.89319 11.5732C5.89319 9.39988 7.65985 7.63321 9.83319 7.63321C12.0065 7.63321 13.7732 9.39988 13.7732 11.5732" stroke="#46211a" stroke-width="1.2" stroke-miterlimit="10" stroke-linecap="round" stroke-linejoin="round"/>
        <path d="M4.7426 5.39923C5.11481 4.70475 4.85357 3.84002 4.15909 3.46781C3.46461 3.09559 2.59988 3.35683 2.22767 4.05131C1.85545 4.74579 2.1167 5.61052 2.81117 5.98273C3.50565 6.35495 4.37038 6.09371 4.7426 5.39923Z" stroke="#46211a" stroke-width="1.2" stroke-miterlimit="10" stroke-linecap="round" stroke-linejoin="round"/>
        <path d="M0.733398 10.9403C0.733398 9.42025 1.96673 8.18692 3.48673 8.18692C4.6134 8.18692 5.58007 8.86025 6.00673 9.83359" stroke="#46211a" stroke-width="1.2" stroke-miterlimit="10" stroke-linecap="round" stroke-linejoin="round"/>
    </symbol>
    <symbol id="star" viewBox="0 0 16 16" fill="none">
        <path d="M8.46671 2.03328L9.84671 5.84661L13.9 5.97994C14.3267 5.99328 14.5067 6.53328 14.1667 6.79994L10.9667 9.28661L12.0934 13.1799C12.2134 13.5933 11.7534 13.9266 11.4 13.6866L8.04671 11.4133L4.69337 13.6866C4.34004 13.9266 3.88004 13.5933 4.00004 13.1799L5.12671 9.28661L1.91337 6.79994C1.57337 6.53994 1.75337 5.99328 2.18004 5.97994L6.23337 5.84661L7.61337 2.03328C7.75337 1.63328 8.32004 1.63328 8.46671 2.03328Z" fill="#a43820"/>
    </symbol>
    <symbol id="mail" viewBox="0 0 24 24" fill="none">
        <path d="M18.09 18.21H5.5C4.4 18.21 3.5 17.31 3.5 16.21V6.5C3.5 5.95 3.95 5.5 4.5 5.5H19.09C19.64 5.5 20.09 5.95 20.09 6.5V16.21C20.09 17.31 19.19 18.21 18.09 18.21Z" stroke="#a43820" stroke-width="1.2" stroke-miterlimit="10" stroke-linecap="round" stroke-linejoin="round"/>
        <path d="M3.8501 6.12988L11.2401 11.2699C11.5701 11.4999 12.0201 11.4999 12.3501 11.2699L19.7401 6.12988" stroke="#a43820" stroke-width="1.2" stroke-miterlimit="10" stroke-linecap="round" stroke-linejoin="round"/>
    </symbol>
    <symbol id="phone" viewBox="0 0 24 24" fill="none">
        <path d="M8.76799 3.71012L10.838 2.87012C11.648 2.54012 12.578 2.93012 12.908 3.75012L13.538 5.29012C13.868 6.10012 13.478 7.03012 12.658 7.37012L10.368 8.30012C10.608 9.45012 10.978 10.8001 11.558 12.2601C12.208 13.9101 12.958 15.2701 13.638 16.3601L15.928 15.4301C16.748 15.1001 17.678 15.4901 18.008 16.3101L18.638 17.8501C18.968 18.6701 18.578 19.6001 17.758 19.9301L15.688 20.7701L15.648 20.7901C13.418 21.6901 10.848 20.8201 9.68799 18.7201C8.90799 17.3101 8.13799 15.7301 7.42799 13.9601C6.78799 12.3601 6.28799 10.8301 5.90799 9.41012C5.27799 7.08012 6.49799 4.65012 8.72799 3.74012L8.76799 3.71012Z" stroke="#a43820" stroke-width="1.2" stroke-miterlimit="10" stroke-linecap="round" stroke-linejoin="round"/>
    </symbol>
</svg>


